<?xml version="1.0" encoding="UTF-8"?>
<svg id="Layer_1" xmlns="http://www.w3.org/2000/svg" version="1.1" viewBox="0 0 2048 2048">
  <defs>
    <linearGradient id="brandGradient" x1="0%" y1="0%" x2="100%" y2="100%">
      <stop offset="0%" stop-color="#6366f1"/>
      <stop offset="100%" stop-color="#4f46e5"/>
    </linearGradient>
  </defs>
  <!-- White background matching the outer shape -->
  <rect x="150" y="150" width="1748" height="1748" rx="150" fill="white"/>
  <path fill="url(#brandGradient)" d="M169.61,1878.37c-58.74-56.76-93.82-135.58-99.4-217.52l.07-1284.1C80.47,209.28,209.08,77.66,377.92,70.27l1289.92-.07c173.25,6.73,300.76,139.7,309.9,311.19l.06,1279.44c-10.02,173.54-152.93,308.11-325.14,316.88l-1255.02.07c-87.51-5.09-165.43-38.95-228.02-99.43ZM1600.9,819.3v-69.2l1.69-1.47c59.31,8.75,119.93-21.99,131.77-83.73-.72-71.44,5.91-148.48,1.5-219.58-3.43-55.29-41.89-95.55-97.11-100.61-413.15,1.13-826.62-1.98-1239.58,1.56-51.76,10.06-83.97,47.53-87.04,100.22-3.95,67.93,2.93,139.76.2,208.09,4.42,37.49,26.63,70.13,61.53,85.02,23.73,10.12,47.78,10.56,73.24,9.92v68.04l-1.74,1.74h-40.71c-45.8,0-92.81,51.61-92.51,97.07,3.38,69-4.35,142.03.06,210.56,3.45,53.53,45.33,92.53,98.22,96.01,9.99.66,24.77-1.69,33.78-.05,1.3.24,2.18.59,2.91,1.74v68.04c-24.94.44-50.51-.87-73.69,9.47-33.62,15-57.82,47.15-61.08,84.31-5.99,68.38,4.22,144.71-.21,213.92,3.28,52.32,44.65,90.9,95.96,95.95h1229.5c51.94-2.48,94.76-42.48,98.27-94.8,4.66-69.44-3.58-144.06-.06-214.04-3.42-45.19-36.88-83.18-81.39-91.91-17.66-3.46-35.59-3-53.51-2.9v-69.79c25.25-.07,50.09,2.08,73.69-8.31,33.21-14.62,58.51-47.53,61.21-84.17,5.14-69.51-3.85-145.06.06-215.21.59-44-45.85-95.91-90.19-95.91h-44.78Z"/>
  <path fill="url(#brandGradient)" d="M1645.86,904.61c3.93,3.68,5.98,9.92,6.26,15.26l-.03,202.43c-1.99,12.99-7.56,18.2-20.23,20.58-366.99.71-735.14,1.01-1102.74.1-34.1-.08-74.96,3.4-108.21.86-12.89-.98-23.01-8.16-24.86-21.66-3.47-25.29,2.96-56.74-.82-82.67,4.31-38.56-3.36-82.85.71-120.78,1.27-11.82,9.02-18.56,20.49-20.22l1209.55-.18c6.82.6,14.7,1.41,19.9,6.28ZM1209.84,975.47c-55.44,6.6-51.14,94.89,7.75,93.93,63.57-1.04,59.56-101.94-7.75-93.93ZM1365.67,975.45c-61.66,8.44-45.2,107.48,17.76,92.2,56.18-13.63,41.64-100.33-17.76-92.2ZM1496.63,1056.16c43.4,42.6,108.56-24.61,64.2-68.27-43.1-42.42-108.68,24.61-64.2,68.27Z"/>
  <path fill="url(#brandGradient)" d="M415.4,1373.21l1215.01-.13c25.54,2.02,22.46,28.97,22.91,48.11,1.15,49.88,1.8,107.07-.04,157.09-.77,21.02-.79,36.94-26.17,38.94l-1211.71-.32c-7.31-1.22-17.24-9.74-19.19-16.87-2.27-69.63-2.66-140.15.23-209.73,2.3-9.69,9.95-14.4,18.96-17.1ZM1250.4,1462.9c-43.81-44.48-111.6,23.9-65.76,67.51,43.96,41.83,107.52-25.1,65.76-67.51ZM1528.49,1449.01c-62.25,2.08-59.67,94.67.89,93.82,62.28-.87,57.86-95.78-.89-93.82ZM1405.09,1529.54c43.25-43.24-20.92-110.55-65.3-67.04-43.23,42.39,21.83,110.51,65.3,67.04Z"/>
  <path fill="url(#brandGradient)" d="M1645.85,661.88c-4.26,4.57-12.49,7.41-18.74,7.43l-1209.54-.18c-11-1.22-20.4-10.28-21.65-21.38-1.98-17.63-1.14-44.43-1.24-62.82-.16-30.33.12-61.22.39-91.85.13-14.24-.86-35.49.95-48.78,1.42-10.46,10.9-18.83,21.37-19.34l1215.38.15c9.9,1.79,17.37,9.17,19.32,19.06v201.29c-.4,5.39-2.54,12.44-6.25,16.42ZM1339.61,513.81c-22.99,22.96-15.41,64.43,15.44,76.2,40.12,15.3,76.94-24.03,59.6-63.09-13.09-29.5-52.45-35.68-75.05-13.11ZM1207.49,500.91c-44.94,6.5-51.92,79.05-2.34,91.29,71.33,17.61,80.68-102.62,2.34-91.29ZM1519.2,500.91c-48.7,7.04-50.02,89.18,6.69,92.72,66.96,4.19,64.61-103.04-6.69-92.72Z"/>
  <polygon fill="url(#brandGradient)" points="1518.32 1222.89 1518.18 1293.71 1516.56 1293.93 531.45 1293.8 529.04 1292.74 528.53 1222.89 1518.32 1222.89"/>
  <polygon fill="url(#brandGradient)" points="1518.32 749.51 1518.32 819.3 529.69 819.3 529.69 748.34 1518.32 749.51"/>
</svg>
